<?xml version="1.0" encoding="utf-8"?>
<svg version="1.1" xmlns="http://www.w3.org/2000/svg" xmlns:xlink="http://www.w3.org/1999/xlink" x="0px" y="0px"
	 width="200px" height="30px" viewBox="0 0 200 30" xml:space="preserve">
<g>
	<path fill="#3F86BA" d="M6.674,0.147h74.533c3.686,0,6.674,2.988,6.674,6.675v16.503c0,3.687-2.988,6.675-6.674,6.675H6.674
		C2.988,30,0,27.012,0,23.325V6.822C0,3.136,2.988,0.147,6.674,0.147z"/>
</g>
<g>
	<path fill="#F4F29B" d="M28.038,9.511v7.708c0,1.463,0.183,2.569,0.55,3.319c0.655,1.361,1.926,2.042,3.814,2.042
		c0.655,0,1.226-0.086,1.714-0.258c0.487-0.172,0.993-0.493,1.515-0.962c0.172-0.148,0.32-0.321,0.445-0.517
		c0.125-0.195,0.202-0.313,0.234-0.353v1.807h3.25V9.511h-3.391v6.957c0,0.821-0.109,1.482-0.327,1.982
		c-0.42,0.924-1.199,1.385-2.335,1.385c-0.887,0-1.482-0.325-1.786-0.975c-0.171-0.367-0.257-0.914-0.257-1.643V9.511H28.038z"/>
	<path fill="#F4F29B" d="M49.889,9.206c-1.051,0-1.92,0.258-2.605,0.773c-0.382,0.29-0.787,0.764-1.215,1.42V9.534h-3.238v12.764
		h3.344v-6.921c0-0.79,0.108-1.438,0.326-1.948c0.419-0.961,1.191-1.442,2.317-1.442c0.916,0,1.537,0.328,1.863,0.985
		c0.178,0.359,0.268,0.876,0.268,1.549v7.778h3.426v-8.612c0-1.603-0.419-2.75-1.256-3.442S51.206,9.206,49.889,9.206L49.889,9.206z
		"/>
	<path fill="#F4F29B" d="M62.811,11.928c0.789,0,1.45,0.229,1.983,0.689c0.533,0.46,0.83,1.134,0.891,2.021h-5.761
		c0.122-0.832,0.418-1.492,0.891-1.979C61.287,12.171,61.953,11.928,62.811,11.928L62.811,11.928z M62.81,9.171
		c-1.874,0-3.399,0.591-4.573,1.772c-1.175,1.183-1.762,2.881-1.762,5.097c0,2.363,0.65,4.07,1.952,5.119s2.802,1.573,4.504,1.573
		c2.062,0,3.665-0.622,4.811-1.865c0.736-0.782,1.149-1.552,1.24-2.312h-3.414c-0.199,0.375-0.428,0.669-0.688,0.881
		c-0.476,0.391-1.095,0.586-1.856,0.586c-0.718,0-1.333-0.16-1.843-0.48c-0.84-0.517-1.286-1.416-1.337-2.699h9.314
		c0.016-1.104-0.021-1.949-0.111-2.537c-0.155-1.002-0.495-1.884-1.019-2.644c-0.581-0.862-1.318-1.492-2.21-1.892
		C64.926,9.37,63.922,9.171,62.81,9.171L62.81,9.171z"/>
	<path fill="#F4F29B" d="M76.173,11.928c0.789,0,1.45,0.229,1.983,0.689s0.83,1.134,0.891,2.021h-5.76
		c0.121-0.832,0.418-1.492,0.891-1.979C74.65,12.171,75.315,11.928,76.173,11.928L76.173,11.928z M76.172,9.171
		c-1.874,0-3.399,0.591-4.573,1.772c-1.174,1.183-1.762,2.881-1.762,5.097c0,2.363,0.65,4.07,1.952,5.119s2.802,1.573,4.504,1.573
		c2.062,0,3.665-0.622,4.81-1.865c0.736-0.782,1.15-1.552,1.24-2.312H78.93c-0.199,0.375-0.428,0.669-0.688,0.881
		c-0.476,0.391-1.095,0.586-1.857,0.586c-0.718,0-1.333-0.16-1.843-0.48c-0.839-0.517-1.285-1.416-1.337-2.699h9.312
		c0.018-1.104-0.02-1.949-0.109-2.537c-0.156-1.002-0.495-1.884-1.02-2.644c-0.581-0.862-1.317-1.492-2.209-1.892
		C78.288,9.37,77.285,9.171,76.172,9.171L76.172,9.171z"/>
	<path fill="#F4F29B" d="M24.698,20.425c1.842,0,3.337,1.494,3.337,3.338c0,1.843-1.495,3.336-3.337,3.336
		c-1.843,0-3.337-1.493-3.337-3.336C21.361,21.919,22.855,20.425,24.698,20.425z"/>
	<path fill="#F4F29B" d="M15.228,4.185C9.64,4.185,5.11,8.715,5.11,14.303s4.53,10.118,10.118,10.118s10.118-4.53,10.118-10.118
		C25.346,8.714,20.816,4.185,15.228,4.185z M15.351,19.253c-2.695,0-4.88-2.185-4.88-4.88s2.185-4.88,4.88-4.88
		s4.88,2.185,4.88,4.88S18.046,19.253,15.351,19.253z"/>
</g>
<g>
	<path fill="#7F8081" d="M97.902,11.887l0.323-2.011c0.321-2.021,1.431-3.032,3.327-3.032c0.803,0,1.65,0.229,2.543,0.687
		l0.121-0.915c-0.893-0.458-1.803-0.687-2.732-0.687c-1.22,0-2.223,0.396-3.006,1.191s-1.27,1.902-1.463,3.322l-0.201,1.444h-2.207
		l-0.132,0.819H96.7l-2.116,15.166h1.082l2.107-15.166h2.625l0.121-0.819H97.902z"/>
	<path fill="#7F8081" d="M102.309,13.584c-0.975,1.276-1.462,2.921-1.462,4.935c0,1.445,0.359,2.582,1.078,3.414
		c0.717,0.83,1.631,1.245,2.738,1.245c1.428,0,2.664-0.632,3.707-1.896c1.043-1.265,1.564-2.924,1.564-4.978
		c0-1.421-0.352-2.548-1.053-3.383c-0.703-0.835-1.648-1.252-2.836-1.252C104.529,11.67,103.283,12.308,102.309,13.584z
		 M102.705,21.197c-0.469-0.646-0.703-1.53-0.703-2.654c0-1.652,0.365-3.043,1.096-4.171c0.729-1.127,1.695-1.69,2.9-1.69
		c0.842,0,1.516,0.327,2.021,0.98c0.506,0.654,0.758,1.535,0.758,2.643c0,1.637-0.406,3.022-1.221,4.158s-1.797,1.703-2.943,1.703
		C103.811,22.166,103.174,21.844,102.705,21.197z"/>
	<path fill="#7F8081" d="M113.291,11.887l-1.553,11.074h1.096l0.922-6.585c0.027-0.144,0.525-0.795,1.498-1.955
		c0.971-1.16,1.838-1.739,2.6-1.739c0.346,0,0.727,0.101,1.145,0.301v-1.095c-0.346-0.145-0.711-0.217-1.096-0.217
		c-0.65,0-1.246,0.238-1.789,0.716c-0.541,0.478-1.242,1.339-2.1,2.582l-0.055-0.042l0.428-3.039L113.291,11.887L113.291,11.887z"/>
	<path fill="#7F8081" d="M140.086,6.146l-1.076,7.668h-11.057l1.07-7.668h-1.168l-2.334,16.815h1.154l1.119-8.017h11.057
		l-1.125,8.017h1.154l2.371-16.815H140.086z"/>
	<path fill="#7F8081" d="M143.371,6.146l-0.145,1.131h4.984l-2.227,15.685h1.166l2.215-15.685h4.984l0.145-1.131H143.371z"/>
	<path fill="#7F8081" d="M158.713,8.685l3.012,14.276h0.418l7.506-14.155v14.155h1.215V6.146h-1.061l-7.49,14.155l-3.037-14.155
		h-0.98l-5.582,16.815h1.217L158.713,8.685z"/>
	<path fill="#7F8081" d="M176.076,6.146l-2.359,16.815h8.703l0.145-1.132h-7.547l2.225-15.684H176.076z"/>
	<path fill="#7F8081" d="M187.643,6.146l-1.059,7.547c0.682-0.201,1.348-0.301,1.998-0.301c1.219,0,2.199,0.355,2.938,1.064
		c0.738,0.711,1.107,1.656,1.107,2.836c0,1.331-0.477,2.473-1.428,3.424c-0.949,0.951-2.088,1.426-3.412,1.426
		c-1.291,0-2.516-0.425-3.672-1.275l-0.469,0.915c1.203,0.931,2.592,1.396,4.164,1.396c1.67,0,3.086-0.576,4.25-1.728
		c1.162-1.151,1.744-2.546,1.744-4.183c0-1.429-0.451-2.604-1.354-3.526c-0.902-0.924-2.051-1.385-3.447-1.385
		c-0.336,0-0.717,0.036-1.143,0.108l0.742-5.284h6.045l0.145-1.035H187.643z"/>
</g>
</svg>